<?xml version="1.0" encoding="utf-8"?>
<svg viewBox="80.223 106 175.834 44" xmlns="http://www.w3.org/2000/svg">
  <rect x="149.057" y="106" width="107" height="44" style="fill: rgb(255, 255, 255);"/>
  <rect x="80.223" y="106" width="69.444" height="44" style="fill: rgb(34, 34, 34);"/>
  <path d="M 89.854 141.696 L 85.414 141.696 L 85.414 123.226 L 88.024 123.226 C 88.477 123.226 88.794 123.309 88.974 123.476 C 89.154 123.649 89.274 123.939 89.334 124.346 L 89.604 126.576 C 90.264 125.436 91.037 124.536 91.924 123.876 C 92.811 123.216 93.807 122.886 94.914 122.886 C 95.827 122.886 96.584 123.096 97.184 123.516 L 96.604 126.846 C 96.571 127.059 96.494 127.213 96.374 127.306 C 96.254 127.393 96.091 127.436 95.884 127.436 C 95.704 127.436 95.457 127.396 95.144 127.316 C 94.837 127.229 94.424 127.186 93.904 127.186 C 92.984 127.186 92.194 127.443 91.534 127.956 C 90.874 128.463 90.314 129.209 89.854 130.196 L 89.854 141.696 ZM 107.744 122.936 C 108.904 122.936 109.974 123.123 110.954 123.496 C 111.934 123.869 112.777 124.413 113.484 125.126 C 114.191 125.839 114.744 126.716 115.144 127.756 C 115.537 128.796 115.734 129.979 115.734 131.306 C 115.734 131.646 115.721 131.926 115.694 132.146 C 115.661 132.366 115.604 132.539 115.524 132.666 C 115.451 132.793 115.347 132.883 115.214 132.936 C 115.081 132.989 114.911 133.016 114.704 133.016 L 103.294 133.016 C 103.427 134.916 103.937 136.309 104.824 137.196 C 105.711 138.083 106.887 138.526 108.354 138.526 C 109.074 138.526 109.694 138.443 110.214 138.276 C 110.741 138.109 111.197 137.923 111.584 137.716 C 111.977 137.516 112.321 137.329 112.614 137.156 C 112.907 136.989 113.191 136.906 113.464 136.906 C 113.644 136.906 113.801 136.943 113.934 137.016 C 114.067 137.089 114.181 137.193 114.274 137.326 L 115.574 138.946 C 115.081 139.519 114.527 139.999 113.914 140.386 C 113.301 140.779 112.664 141.093 112.004 141.326 C 111.337 141.559 110.657 141.726 109.964 141.826 C 109.277 141.919 108.607 141.966 107.954 141.966 C 106.674 141.966 105.481 141.753 104.374 141.326 C 103.274 140.899 102.314 140.269 101.494 139.436 C 100.681 138.603 100.041 137.569 99.574 136.336 C 99.101 135.109 98.864 133.686 98.864 132.066 C 98.864 130.806 99.071 129.619 99.484 128.506 C 99.891 127.399 100.474 126.436 101.234 125.616 C 101.994 124.789 102.924 124.136 104.024 123.656 C 105.124 123.176 106.364 122.936 107.744 122.936 Z M 107.834 126.126 C 106.534 126.126 105.521 126.493 104.794 127.226 C 104.061 127.959 103.591 128.996 103.384 130.336 L 111.734 130.336 C 111.734 129.763 111.657 129.219 111.504 128.706 C 111.351 128.199 111.111 127.753 110.784 127.366 C 110.457 126.986 110.051 126.683 109.564 126.456 C 109.071 126.236 108.494 126.126 107.834 126.126 ZM 131.319 125.226 L 130.309 126.826 C 130.189 127.019 130.062 127.156 129.929 127.236 C 129.795 127.309 129.629 127.346 129.429 127.346 C 129.209 127.346 128.975 127.286 128.729 127.166 C 128.482 127.046 128.199 126.913 127.879 126.766 C 127.552 126.613 127.182 126.476 126.769 126.356 C 126.355 126.236 125.865 126.176 125.299 126.176 C 124.425 126.176 123.735 126.363 123.229 126.736 C 122.729 127.109 122.479 127.596 122.479 128.196 C 122.479 128.589 122.609 128.923 122.869 129.196 C 123.122 129.463 123.462 129.699 123.889 129.906 C 124.315 130.113 124.799 130.296 125.339 130.456 C 125.879 130.616 126.432 130.793 126.999 130.986 C 127.559 131.179 128.109 131.399 128.649 131.646 C 129.189 131.893 129.672 132.203 130.099 132.576 C 130.525 132.956 130.869 133.409 131.129 133.936 C 131.382 134.463 131.509 135.099 131.509 135.846 C 131.509 136.733 131.349 137.553 131.029 138.306 C 130.702 139.053 130.229 139.699 129.609 140.246 C 128.982 140.793 128.209 141.219 127.289 141.526 C 126.375 141.833 125.322 141.986 124.129 141.986 C 123.495 141.986 122.875 141.929 122.269 141.816 C 121.662 141.703 121.082 141.543 120.529 141.336 C 119.969 141.129 119.452 140.889 118.979 140.616 C 118.505 140.343 118.089 140.043 117.729 139.716 L 118.749 138.026 C 118.882 137.819 119.039 137.663 119.219 137.556 C 119.399 137.449 119.625 137.396 119.899 137.396 C 120.179 137.396 120.442 137.473 120.689 137.626 C 120.935 137.786 121.219 137.956 121.539 138.136 C 121.865 138.316 122.249 138.483 122.689 138.636 C 123.122 138.789 123.675 138.866 124.349 138.866 C 124.875 138.866 125.329 138.803 125.709 138.676 C 126.089 138.556 126.402 138.393 126.649 138.186 C 126.889 137.979 127.069 137.743 127.189 137.476 C 127.302 137.203 127.359 136.923 127.359 136.636 C 127.359 136.203 127.229 135.849 126.969 135.576 C 126.709 135.303 126.365 135.063 125.939 134.856 C 125.512 134.649 125.029 134.466 124.489 134.306 C 123.942 134.146 123.382 133.969 122.809 133.776 C 122.242 133.583 121.685 133.356 121.139 133.096 C 120.592 132.843 120.105 132.516 119.679 132.116 C 119.252 131.723 118.909 131.239 118.649 130.666 C 118.395 130.086 118.269 129.389 118.269 128.576 C 118.269 127.816 118.419 127.096 118.719 126.416 C 119.019 125.729 119.459 125.133 120.039 124.626 C 120.619 124.113 121.345 123.703 122.219 123.396 C 123.085 123.089 124.089 122.936 125.229 122.936 C 126.502 122.936 127.662 123.146 128.709 123.566 C 129.749 123.986 130.619 124.539 131.319 125.226 ZM 141.134 141.986 C 139.541 141.986 138.311 141.533 137.444 140.626 C 136.584 139.719 136.154 138.469 136.154 136.876 L 136.154 126.556 L 134.274 126.556 C 134.034 126.556 133.828 126.479 133.654 126.326 C 133.481 126.166 133.394 125.933 133.394 125.626 L 133.394 123.856 L 136.364 123.376 L 137.304 118.336 C 137.351 118.096 137.461 117.909 137.634 117.776 C 137.808 117.643 138.028 117.576 138.294 117.576 L 140.594 117.576 L 140.594 123.386 L 145.454 123.386 L 145.454 126.556 L 140.594 126.556 L 140.594 136.566 C 140.594 137.139 140.738 137.589 141.024 137.916 C 141.318 138.243 141.704 138.406 142.184 138.406 C 142.458 138.406 142.688 138.373 142.874 138.306 C 143.061 138.239 143.224 138.169 143.364 138.096 C 143.498 138.023 143.618 137.953 143.724 137.886 C 143.838 137.819 143.948 137.786 144.054 137.786 C 144.188 137.786 144.294 137.819 144.374 137.886 C 144.461 137.953 144.551 138.053 144.644 138.186 L 145.974 140.346 C 145.328 140.886 144.584 141.293 143.744 141.566 C 142.904 141.846 142.034 141.986 141.134 141.986 Z" transform="matrix(1, 0, 0, 1, 0, 0)" style="fill: rgb(242, 242, 242); white-space: pre;"/>
  <path d="M 158.926 141.696 L 155.996 141.696 L 155.996 114.946 L 160.446 114.946 L 160.446 125.496 C 161.173 124.716 161.999 124.096 162.926 123.636 C 163.853 123.169 164.933 122.936 166.166 122.936 C 167.173 122.936 168.093 123.143 168.926 123.556 C 169.759 123.976 170.479 124.579 171.086 125.366 C 171.693 126.159 172.163 127.139 172.496 128.306 C 172.823 129.466 172.986 130.803 172.986 132.316 C 172.986 133.696 172.799 134.976 172.426 136.156 C 172.059 137.329 171.529 138.349 170.836 139.216 C 170.149 140.076 169.316 140.749 168.336 141.236 C 167.356 141.723 166.259 141.966 165.046 141.966 C 164.486 141.966 163.973 141.909 163.506 141.796 C 163.033 141.683 162.606 141.523 162.226 141.316 C 161.839 141.116 161.483 140.866 161.156 140.566 C 160.823 140.273 160.506 139.946 160.206 139.586 L 160.006 140.836 C 159.939 141.143 159.819 141.363 159.646 141.496 C 159.466 141.629 159.226 141.696 158.926 141.696 Z M 164.636 126.396 C 163.709 126.396 162.919 126.589 162.266 126.976 C 161.613 127.369 161.006 127.919 160.446 128.626 L 160.446 136.906 C 160.946 137.533 161.493 137.969 162.086 138.216 C 162.679 138.463 163.326 138.586 164.026 138.586 C 164.699 138.586 165.306 138.459 165.846 138.206 C 166.386 137.953 166.843 137.569 167.216 137.056 C 167.596 136.536 167.889 135.883 168.096 135.096 C 168.296 134.309 168.396 133.383 168.396 132.316 C 168.396 131.236 168.309 130.323 168.136 129.576 C 167.963 128.823 167.713 128.213 167.386 127.746 C 167.066 127.279 166.676 126.936 166.216 126.716 C 165.749 126.503 165.223 126.396 164.636 126.396 ZM 184.088 122.936 C 185.248 122.936 186.318 123.123 187.298 123.496 C 188.278 123.869 189.121 124.413 189.828 125.126 C 190.535 125.839 191.088 126.716 191.488 127.756 C 191.881 128.796 192.078 129.979 192.078 131.306 C 192.078 131.646 192.065 131.926 192.038 132.146 C 192.005 132.366 191.948 132.539 191.868 132.666 C 191.795 132.793 191.691 132.883 191.558 132.936 C 191.425 132.989 191.255 133.016 191.048 133.016 L 179.638 133.016 C 179.771 134.916 180.281 136.309 181.168 137.196 C 182.055 138.083 183.231 138.526 184.698 138.526 C 185.418 138.526 186.038 138.443 186.558 138.276 C 187.085 138.109 187.541 137.923 187.928 137.716 C 188.321 137.516 188.665 137.329 188.958 137.156 C 189.251 136.989 189.535 136.906 189.808 136.906 C 189.988 136.906 190.145 136.943 190.278 137.016 C 190.411 137.089 190.525 137.193 190.618 137.326 L 191.918 138.946 C 191.425 139.519 190.871 139.999 190.258 140.386 C 189.645 140.779 189.008 141.093 188.348 141.326 C 187.681 141.559 187.001 141.726 186.308 141.826 C 185.621 141.919 184.951 141.966 184.298 141.966 C 183.018 141.966 181.825 141.753 180.718 141.326 C 179.618 140.899 178.658 140.269 177.838 139.436 C 177.025 138.603 176.385 137.569 175.918 136.336 C 175.445 135.109 175.208 133.686 175.208 132.066 C 175.208 130.806 175.415 129.619 175.828 128.506 C 176.235 127.399 176.818 126.436 177.578 125.616 C 178.338 124.789 179.268 124.136 180.368 123.656 C 181.468 123.176 182.708 122.936 184.088 122.936 Z M 184.178 126.126 C 182.878 126.126 181.865 126.493 181.138 127.226 C 180.405 127.959 179.935 128.996 179.728 130.336 L 188.078 130.336 C 188.078 129.763 188.001 129.219 187.848 128.706 C 187.695 128.199 187.455 127.753 187.128 127.366 C 186.801 126.986 186.395 126.683 185.908 126.456 C 185.415 126.236 184.838 126.126 184.178 126.126 ZM 200.132 141.696 L 195.692 141.696 L 195.692 123.226 L 198.402 123.226 C 198.982 123.226 199.362 123.496 199.542 124.036 L 199.842 125.496 C 200.216 125.109 200.609 124.763 201.022 124.456 C 201.436 124.143 201.876 123.873 202.342 123.646 C 202.802 123.413 203.296 123.236 203.822 123.116 C 204.349 122.996 204.926 122.936 205.552 122.936 C 206.559 122.936 207.452 123.109 208.232 123.456 C 209.012 123.796 209.666 124.276 210.192 124.896 C 210.712 125.509 211.106 126.246 211.372 127.106 C 211.646 127.966 211.782 128.913 211.782 129.946 L 211.782 141.696 L 207.332 141.696 L 207.332 129.946 C 207.332 128.813 207.072 127.939 206.552 127.326 C 206.032 126.706 205.249 126.396 204.202 126.396 C 203.436 126.396 202.716 126.569 202.042 126.916 C 201.369 127.263 200.732 127.736 200.132 128.336 L 200.132 141.696 ZM 230.29 125.516 L 229.12 127.136 C 228.993 127.303 228.867 127.433 228.74 127.526 C 228.613 127.626 228.43 127.676 228.19 127.676 C 227.963 127.676 227.74 127.606 227.52 127.466 C 227.307 127.326 227.05 127.169 226.75 126.996 C 226.45 126.823 226.093 126.666 225.68 126.526 C 225.267 126.393 224.753 126.326 224.14 126.326 C 223.36 126.326 222.677 126.466 222.09 126.746 C 221.497 127.026 221.007 127.433 220.62 127.966 C 220.227 128.493 219.937 129.129 219.75 129.876 C 219.557 130.629 219.46 131.479 219.46 132.426 C 219.46 133.413 219.563 134.289 219.77 135.056 C 219.983 135.823 220.287 136.466 220.68 136.986 C 221.08 137.513 221.56 137.909 222.12 138.176 C 222.687 138.449 223.323 138.586 224.03 138.586 C 224.737 138.586 225.31 138.496 225.75 138.316 C 226.19 138.143 226.56 137.953 226.86 137.746 C 227.16 137.533 227.42 137.339 227.64 137.166 C 227.86 136.993 228.11 136.906 228.39 136.906 C 228.75 136.906 229.02 137.046 229.2 137.326 L 230.47 138.946 C 229.983 139.519 229.45 139.999 228.87 140.386 C 228.297 140.779 227.7 141.093 227.08 141.326 C 226.46 141.559 225.82 141.726 225.16 141.826 C 224.5 141.919 223.847 141.966 223.2 141.966 C 222.06 141.966 220.987 141.753 219.98 141.326 C 218.973 140.899 218.093 140.279 217.34 139.466 C 216.593 138.646 216 137.646 215.56 136.466 C 215.12 135.286 214.9 133.939 214.9 132.426 C 214.9 131.073 215.097 129.816 215.49 128.656 C 215.877 127.496 216.45 126.493 217.21 125.646 C 217.963 124.799 218.9 124.136 220.02 123.656 C 221.133 123.176 222.417 122.936 223.87 122.936 C 225.25 122.936 226.46 123.159 227.5 123.606 C 228.533 124.053 229.463 124.689 230.29 125.516 ZM 237.755 141.696 L 233.315 141.696 L 233.315 114.946 L 237.755 114.946 L 237.755 125.226 C 238.475 124.539 239.269 123.986 240.135 123.566 C 240.995 123.146 242.009 122.936 243.175 122.936 C 244.182 122.936 245.075 123.109 245.855 123.456 C 246.635 123.796 247.289 124.276 247.815 124.896 C 248.335 125.509 248.729 126.246 248.995 127.106 C 249.269 127.966 249.405 128.913 249.405 129.946 L 249.405 141.696 L 244.955 141.696 L 244.955 129.946 C 244.955 128.813 244.695 127.939 244.175 127.326 C 243.655 126.706 242.872 126.396 241.825 126.396 C 241.059 126.396 240.339 126.569 239.665 126.916 C 238.992 127.263 238.355 127.736 237.755 128.336 L 237.755 141.696 Z" transform="matrix(1, 0, 0, 1, 0, 0)" style="fill: rgb(32, 32, 32); white-space: pre;"/>
</svg>