<?xml version="1.0" encoding="utf-8"?>
<svg viewBox="83.031 105.937 161.437 43.344" xmlns="http://www.w3.org/2000/svg">
  <path d="M 89.854 141.696 L 85.414 141.696 L 85.414 123.226 L 88.024 123.226 C 88.477 123.226 88.794 123.309 88.974 123.476 C 89.154 123.649 89.274 123.939 89.334 124.346 L 89.604 126.576 C 90.264 125.436 91.037 124.536 91.924 123.876 C 92.811 123.216 93.807 122.886 94.914 122.886 C 95.827 122.886 96.584 123.096 97.184 123.516 L 96.604 126.846 C 96.571 127.059 96.494 127.213 96.374 127.306 C 96.254 127.393 96.091 127.436 95.884 127.436 C 95.704 127.436 95.457 127.396 95.144 127.316 C 94.837 127.229 94.424 127.186 93.904 127.186 C 92.984 127.186 92.194 127.443 91.534 127.956 C 90.874 128.463 90.314 129.209 89.854 130.196 L 89.854 141.696 ZM 107.745 122.936 C 108.905 122.936 109.975 123.123 110.955 123.496 C 111.935 123.869 112.778 124.413 113.485 125.126 C 114.192 125.839 114.745 126.716 115.145 127.756 C 115.538 128.796 115.735 129.979 115.735 131.306 C 115.735 131.646 115.722 131.926 115.695 132.146 C 115.662 132.366 115.605 132.539 115.525 132.666 C 115.452 132.793 115.348 132.883 115.215 132.936 C 115.082 132.989 114.912 133.016 114.705 133.016 L 103.295 133.016 C 103.428 134.916 103.938 136.309 104.825 137.196 C 105.712 138.083 106.888 138.526 108.355 138.526 C 109.075 138.526 109.695 138.443 110.215 138.276 C 110.742 138.109 111.198 137.923 111.585 137.716 C 111.978 137.516 112.322 137.329 112.615 137.156 C 112.908 136.989 113.192 136.906 113.465 136.906 C 113.645 136.906 113.802 136.943 113.935 137.016 C 114.068 137.089 114.182 137.193 114.275 137.326 L 115.575 138.946 C 115.082 139.519 114.528 139.999 113.915 140.386 C 113.302 140.779 112.665 141.093 112.005 141.326 C 111.338 141.559 110.658 141.726 109.965 141.826 C 109.278 141.919 108.608 141.966 107.955 141.966 C 106.675 141.966 105.482 141.753 104.375 141.326 C 103.275 140.899 102.315 140.269 101.495 139.436 C 100.682 138.603 100.042 137.569 99.575 136.336 C 99.102 135.109 98.865 133.686 98.865 132.066 C 98.865 130.806 99.072 129.619 99.485 128.506 C 99.892 127.399 100.475 126.436 101.235 125.616 C 101.995 124.789 102.925 124.136 104.025 123.656 C 105.125 123.176 106.365 122.936 107.745 122.936 Z M 107.835 126.126 C 106.535 126.126 105.522 126.493 104.795 127.226 C 104.062 127.959 103.592 128.996 103.385 130.336 L 111.735 130.336 C 111.735 129.763 111.658 129.219 111.505 128.706 C 111.352 128.199 111.112 127.753 110.785 127.366 C 110.458 126.986 110.052 126.683 109.565 126.456 C 109.072 126.236 108.495 126.126 107.835 126.126 ZM 131.321 125.226 L 130.311 126.826 C 130.191 127.019 130.064 127.156 129.931 127.236 C 129.797 127.309 129.631 127.346 129.431 127.346 C 129.211 127.346 128.977 127.286 128.731 127.166 C 128.484 127.046 128.201 126.913 127.881 126.766 C 127.554 126.613 127.184 126.476 126.771 126.356 C 126.357 126.236 125.867 126.176 125.301 126.176 C 124.427 126.176 123.737 126.363 123.231 126.736 C 122.731 127.109 122.481 127.596 122.481 128.196 C 122.481 128.589 122.611 128.923 122.871 129.196 C 123.124 129.463 123.464 129.699 123.891 129.906 C 124.317 130.113 124.801 130.296 125.341 130.456 C 125.881 130.616 126.434 130.793 127.001 130.986 C 127.561 131.179 128.111 131.399 128.651 131.646 C 129.191 131.893 129.674 132.203 130.101 132.576 C 130.527 132.956 130.871 133.409 131.131 133.936 C 131.384 134.463 131.511 135.099 131.511 135.846 C 131.511 136.733 131.351 137.553 131.031 138.306 C 130.704 139.053 130.231 139.699 129.611 140.246 C 128.984 140.793 128.211 141.219 127.291 141.526 C 126.377 141.833 125.324 141.986 124.131 141.986 C 123.497 141.986 122.877 141.929 122.271 141.816 C 121.664 141.703 121.084 141.543 120.531 141.336 C 119.971 141.129 119.454 140.889 118.981 140.616 C 118.507 140.343 118.091 140.043 117.731 139.716 L 118.751 138.026 C 118.884 137.819 119.041 137.663 119.221 137.556 C 119.401 137.449 119.627 137.396 119.901 137.396 C 120.181 137.396 120.444 137.473 120.691 137.626 C 120.937 137.786 121.221 137.956 121.541 138.136 C 121.867 138.316 122.251 138.483 122.691 138.636 C 123.124 138.789 123.677 138.866 124.351 138.866 C 124.877 138.866 125.331 138.803 125.711 138.676 C 126.091 138.556 126.404 138.393 126.651 138.186 C 126.891 137.979 127.071 137.743 127.191 137.476 C 127.304 137.203 127.361 136.923 127.361 136.636 C 127.361 136.203 127.231 135.849 126.971 135.576 C 126.711 135.303 126.367 135.063 125.941 134.856 C 125.514 134.649 125.031 134.466 124.491 134.306 C 123.944 134.146 123.384 133.969 122.811 133.776 C 122.244 133.583 121.687 133.356 121.141 133.096 C 120.594 132.843 120.107 132.516 119.681 132.116 C 119.254 131.723 118.911 131.239 118.651 130.666 C 118.397 130.086 118.271 129.389 118.271 128.576 C 118.271 127.816 118.421 127.096 118.721 126.416 C 119.021 125.729 119.461 125.133 120.041 124.626 C 120.621 124.113 121.347 123.703 122.221 123.396 C 123.087 123.089 124.091 122.936 125.231 122.936 C 126.504 122.936 127.664 123.146 128.711 123.566 C 129.751 123.986 130.621 124.539 131.321 125.226 ZM 141.137 141.986 C 139.544 141.986 138.314 141.533 137.447 140.626 C 136.587 139.719 136.157 138.469 136.157 136.876 L 136.157 126.556 L 134.277 126.556 C 134.037 126.556 133.831 126.479 133.657 126.326 C 133.484 126.166 133.397 125.933 133.397 125.626 L 133.397 123.856 L 136.367 123.376 L 137.307 118.336 C 137.354 118.096 137.464 117.909 137.637 117.776 C 137.811 117.643 138.031 117.576 138.297 117.576 L 140.597 117.576 L 140.597 123.386 L 145.457 123.386 L 145.457 126.556 L 140.597 126.556 L 140.597 136.566 C 140.597 137.139 140.741 137.589 141.027 137.916 C 141.321 138.243 141.707 138.406 142.187 138.406 C 142.461 138.406 142.691 138.373 142.877 138.306 C 143.064 138.239 143.227 138.169 143.367 138.096 C 143.501 138.023 143.621 137.953 143.727 137.886 C 143.841 137.819 143.951 137.786 144.057 137.786 C 144.191 137.786 144.297 137.819 144.377 137.886 C 144.464 137.953 144.554 138.053 144.647 138.186 L 145.977 140.346 C 145.331 140.886 144.587 141.293 143.747 141.566 C 142.907 141.846 142.037 141.986 141.137 141.986 ZM 151.985 141.696 L 149.055 141.696 L 149.055 114.946 L 153.505 114.946 L 153.505 125.496 C 154.231 124.716 155.058 124.096 155.985 123.636 C 156.911 123.169 157.991 122.936 159.225 122.936 C 160.231 122.936 161.151 123.143 161.985 123.556 C 162.818 123.976 163.538 124.579 164.145 125.366 C 164.751 126.159 165.221 127.139 165.555 128.306 C 165.881 129.466 166.045 130.803 166.045 132.316 C 166.045 133.696 165.858 134.976 165.485 136.156 C 165.118 137.329 164.588 138.349 163.895 139.216 C 163.208 140.076 162.375 140.749 161.395 141.236 C 160.415 141.723 159.318 141.966 158.105 141.966 C 157.545 141.966 157.031 141.909 156.565 141.796 C 156.091 141.683 155.665 141.523 155.285 141.316 C 154.898 141.116 154.541 140.866 154.215 140.566 C 153.881 140.273 153.565 139.946 153.265 139.586 L 153.065 140.836 C 152.998 141.143 152.878 141.363 152.705 141.496 C 152.525 141.629 152.285 141.696 151.985 141.696 Z M 157.695 126.396 C 156.768 126.396 155.978 126.589 155.325 126.976 C 154.671 127.369 154.065 127.919 153.505 128.626 L 153.505 136.906 C 154.005 137.533 154.551 137.969 155.145 138.216 C 155.738 138.463 156.385 138.586 157.085 138.586 C 157.758 138.586 158.365 138.459 158.905 138.206 C 159.445 137.953 159.901 137.569 160.275 137.056 C 160.655 136.536 160.948 135.883 161.155 135.096 C 161.355 134.309 161.455 133.383 161.455 132.316 C 161.455 131.236 161.368 130.323 161.195 129.576 C 161.021 128.823 160.771 128.213 160.445 127.746 C 160.125 127.279 159.735 126.936 159.275 126.716 C 158.808 126.503 158.281 126.396 157.695 126.396 ZM 177.148 122.936 C 178.308 122.936 179.378 123.123 180.358 123.496 C 181.338 123.869 182.181 124.413 182.888 125.126 C 183.594 125.839 184.148 126.716 184.548 127.756 C 184.941 128.796 185.138 129.979 185.138 131.306 C 185.138 131.646 185.124 131.926 185.098 132.146 C 185.064 132.366 185.008 132.539 184.928 132.666 C 184.854 132.793 184.751 132.883 184.618 132.936 C 184.484 132.989 184.314 133.016 184.108 133.016 L 172.698 133.016 C 172.831 134.916 173.341 136.309 174.228 137.196 C 175.114 138.083 176.291 138.526 177.758 138.526 C 178.478 138.526 179.098 138.443 179.618 138.276 C 180.144 138.109 180.601 137.923 180.988 137.716 C 181.381 137.516 181.724 137.329 182.018 137.156 C 182.311 136.989 182.594 136.906 182.868 136.906 C 183.048 136.906 183.204 136.943 183.338 137.016 C 183.471 137.089 183.584 137.193 183.678 137.326 L 184.978 138.946 C 184.484 139.519 183.931 139.999 183.318 140.386 C 182.704 140.779 182.068 141.093 181.408 141.326 C 180.741 141.559 180.061 141.726 179.368 141.826 C 178.681 141.919 178.011 141.966 177.358 141.966 C 176.078 141.966 174.884 141.753 173.778 141.326 C 172.678 140.899 171.718 140.269 170.898 139.436 C 170.084 138.603 169.444 137.569 168.978 136.336 C 168.504 135.109 168.268 133.686 168.268 132.066 C 168.268 130.806 168.474 129.619 168.888 128.506 C 169.294 127.399 169.878 126.436 170.638 125.616 C 171.398 124.789 172.328 124.136 173.428 123.656 C 174.528 123.176 175.768 122.936 177.148 122.936 Z M 177.238 126.126 C 175.938 126.126 174.924 126.493 174.198 127.226 C 173.464 127.959 172.994 128.996 172.788 130.336 L 181.138 130.336 C 181.138 129.763 181.061 129.219 180.908 128.706 C 180.754 128.199 180.514 127.753 180.188 127.366 C 179.861 126.986 179.454 126.683 178.968 126.456 C 178.474 126.236 177.898 126.126 177.238 126.126 ZM 193.193 141.696 L 188.753 141.696 L 188.753 123.226 L 191.463 123.226 C 192.043 123.226 192.423 123.496 192.603 124.036 L 192.903 125.496 C 193.277 125.109 193.67 124.763 194.083 124.456 C 194.497 124.143 194.937 123.873 195.403 123.646 C 195.863 123.413 196.357 123.236 196.883 123.116 C 197.41 122.996 197.987 122.936 198.613 122.936 C 199.62 122.936 200.513 123.109 201.293 123.456 C 202.073 123.796 202.727 124.276 203.253 124.896 C 203.773 125.509 204.167 126.246 204.433 127.106 C 204.707 127.966 204.843 128.913 204.843 129.946 L 204.843 141.696 L 200.393 141.696 L 200.393 129.946 C 200.393 128.813 200.133 127.939 199.613 127.326 C 199.093 126.706 198.31 126.396 197.263 126.396 C 196.497 126.396 195.777 126.569 195.103 126.916 C 194.43 127.263 193.793 127.736 193.193 128.336 L 193.193 141.696 ZM 223.352 125.516 L 222.182 127.136 C 222.056 127.303 221.929 127.433 221.802 127.526 C 221.676 127.626 221.492 127.676 221.252 127.676 C 221.026 127.676 220.802 127.606 220.582 127.466 C 220.369 127.326 220.112 127.169 219.812 126.996 C 219.512 126.823 219.156 126.666 218.742 126.526 C 218.329 126.393 217.816 126.326 217.202 126.326 C 216.422 126.326 215.739 126.466 215.152 126.746 C 214.559 127.026 214.069 127.433 213.682 127.966 C 213.289 128.493 212.999 129.129 212.812 129.876 C 212.619 130.629 212.522 131.479 212.522 132.426 C 212.522 133.413 212.626 134.289 212.832 135.056 C 213.046 135.823 213.349 136.466 213.742 136.986 C 214.142 137.513 214.622 137.909 215.182 138.176 C 215.749 138.449 216.386 138.586 217.092 138.586 C 217.799 138.586 218.372 138.496 218.812 138.316 C 219.252 138.143 219.622 137.953 219.922 137.746 C 220.222 137.533 220.482 137.339 220.702 137.166 C 220.922 136.993 221.172 136.906 221.452 136.906 C 221.812 136.906 222.082 137.046 222.262 137.326 L 223.532 138.946 C 223.046 139.519 222.512 139.999 221.932 140.386 C 221.359 140.779 220.762 141.093 220.142 141.326 C 219.522 141.559 218.882 141.726 218.222 141.826 C 217.562 141.919 216.909 141.966 216.262 141.966 C 215.122 141.966 214.049 141.753 213.042 141.326 C 212.036 140.899 211.156 140.279 210.402 139.466 C 209.656 138.646 209.062 137.646 208.622 136.466 C 208.182 135.286 207.962 133.939 207.962 132.426 C 207.962 131.073 208.159 129.816 208.552 128.656 C 208.939 127.496 209.512 126.493 210.272 125.646 C 211.026 124.799 211.962 124.136 213.082 123.656 C 214.196 123.176 215.479 122.936 216.932 122.936 C 218.312 122.936 219.522 123.159 220.562 123.606 C 221.596 124.053 222.526 124.689 223.352 125.516 ZM 230.819 141.696 L 226.379 141.696 L 226.379 114.946 L 230.819 114.946 L 230.819 125.226 C 231.539 124.539 232.332 123.986 233.199 123.566 C 234.059 123.146 235.072 122.936 236.239 122.936 C 237.245 122.936 238.139 123.109 238.919 123.456 C 239.699 123.796 240.352 124.276 240.879 124.896 C 241.399 125.509 241.792 126.246 242.059 127.106 C 242.332 127.966 242.469 128.913 242.469 129.946 L 242.469 141.696 L 238.019 141.696 L 238.019 129.946 C 238.019 128.813 237.759 127.939 237.239 127.326 C 236.719 126.706 235.935 126.396 234.889 126.396 C 234.122 126.396 233.402 126.569 232.729 126.916 C 232.055 127.263 231.419 127.736 230.819 128.336 L 230.819 141.696 Z" transform="matrix(1, 0, 0, 1, 0, 0)" style="fill: rgb(144, 11, 187); white-space: pre;"/>
</svg>