<?xml version="1.0" encoding="utf-8"?>
<svg viewBox="100.344 93.922 158.484 60.016" xmlns="http://www.w3.org/2000/svg">
  <path d="M 102.486 137.724 C 102.486 136.071 102.816 134.884 103.476 134.164 C 104.129 133.444 105.019 133.084 106.146 133.084 C 107.319 133.084 108.226 133.467 108.866 134.234 C 109.506 135.001 109.826 136.164 109.826 137.724 C 109.826 139.164 109.503 140.277 108.856 141.064 C 108.203 141.857 107.293 142.254 106.126 142.254 C 105.013 142.254 104.129 141.871 103.476 141.104 C 102.816 140.337 102.486 139.211 102.486 137.724 Z" transform="matrix(1, 0, 0, 1, 0, 0)" style="fill: rgb(255, 0, 0); white-space: pre;"/>
  <path d="M 115.146 141.924 L 115.146 109.654 L 119.476 109.654 L 119.996 112.934 C 120.649 111.714 121.402 110.801 122.256 110.194 C 123.109 109.581 123.979 109.274 124.866 109.274 C 126.572 109.274 127.832 109.797 128.646 110.844 C 129.459 111.891 129.866 113.461 129.866 115.554 C 129.866 115.821 129.846 116.137 129.806 116.504 C 129.766 116.871 129.709 117.254 129.636 117.654 C 129.569 118.054 129.486 118.454 129.386 118.854 C 129.279 119.247 129.172 119.611 129.066 119.944 L 124.936 119.944 L 124.936 116.944 C 124.936 116.284 124.892 115.744 124.806 115.324 C 124.726 114.904 124.616 114.564 124.476 114.304 C 124.329 114.044 124.162 113.864 123.976 113.764 C 123.789 113.664 123.586 113.614 123.366 113.614 C 122.899 113.614 122.466 113.764 122.066 114.064 C 121.672 114.371 121.342 114.797 121.076 115.344 L 121.076 141.924 L 115.146 141.924 ZM 141.39 142.274 C 139.997 142.274 138.767 142.017 137.7 141.504 C 136.627 140.984 135.723 140.177 134.99 139.084 C 134.257 137.991 133.703 136.591 133.33 134.884 C 132.95 133.171 132.76 131.111 132.76 128.704 L 132.76 122.614 C 132.76 120.567 132.913 118.814 133.22 117.354 C 133.527 115.887 133.927 114.661 134.42 113.674 C 134.907 112.681 135.477 111.894 136.13 111.314 C 136.777 110.734 137.443 110.294 138.13 109.994 C 138.817 109.687 139.5 109.491 140.18 109.404 C 140.86 109.317 141.49 109.274 142.07 109.274 C 143.13 109.274 144.153 109.434 145.14 109.754 C 146.12 110.074 146.987 110.621 147.74 111.394 C 148.487 112.167 149.083 113.204 149.53 114.504 C 149.977 115.797 150.2 117.414 150.2 119.354 C 150.2 120.007 150.18 120.671 150.14 121.344 C 150.1 122.017 150.05 122.677 149.99 123.324 C 149.93 123.971 149.847 124.601 149.74 125.214 C 149.64 125.821 149.537 126.384 149.43 126.904 L 138.72 126.904 L 138.72 130.184 C 138.72 131.591 138.773 132.774 138.88 133.734 C 138.987 134.694 139.17 135.467 139.43 136.054 C 139.69 136.641 140.043 137.061 140.49 137.314 C 140.93 137.574 141.487 137.704 142.16 137.704 C 142.52 137.704 142.873 137.631 143.22 137.484 C 143.56 137.337 143.86 137.091 144.12 136.744 C 144.38 136.397 144.587 135.941 144.74 135.374 C 144.893 134.801 144.97 134.094 144.97 133.254 L 144.97 132.244 L 149.92 132.244 L 149.92 133.484 C 149.92 136.551 149.19 138.781 147.73 140.174 C 146.27 141.574 144.157 142.274 141.39 142.274 Z M 138.72 122.914 L 144.67 122.914 C 144.683 122.741 144.7 122.511 144.72 122.224 C 144.733 121.937 144.743 121.637 144.75 121.324 C 144.757 121.011 144.76 120.701 144.76 120.394 C 144.76 120.094 144.76 119.834 144.76 119.614 C 144.76 117.487 144.51 115.954 144.01 115.014 C 143.51 114.081 142.77 113.614 141.79 113.614 C 141.27 113.614 140.817 113.734 140.43 113.974 C 140.037 114.214 139.717 114.621 139.47 115.194 C 139.217 115.761 139.027 116.514 138.9 117.454 C 138.78 118.394 138.72 119.557 138.72 120.944 L 138.72 122.914 ZM 161.394 142.304 C 161.041 142.304 160.621 142.267 160.134 142.194 C 159.648 142.121 159.148 141.961 158.634 141.714 C 158.121 141.461 157.614 141.084 157.114 140.584 C 156.614 140.084 156.168 139.401 155.774 138.534 C 155.381 137.667 155.064 136.594 154.824 135.314 C 154.584 134.034 154.464 132.481 154.464 130.654 L 154.464 120.404 C 154.464 118.597 154.591 117.067 154.844 115.814 C 155.104 114.567 155.444 113.534 155.864 112.714 C 156.291 111.887 156.764 111.244 157.284 110.784 C 157.811 110.324 158.334 109.984 158.854 109.764 C 159.381 109.551 159.881 109.421 160.354 109.374 C 160.834 109.321 161.231 109.294 161.544 109.294 C 162.118 109.294 162.664 109.374 163.184 109.534 C 163.698 109.687 164.164 109.894 164.584 110.154 C 165.004 110.414 165.381 110.704 165.714 111.024 C 166.041 111.344 166.314 111.667 166.534 111.994 L 166.554 111.974 L 166.364 107.894 L 166.364 99.294 L 172.274 99.294 L 172.274 141.924 L 167.654 141.924 L 167.144 138.924 C 166.878 139.344 166.571 139.757 166.224 140.164 C 165.884 140.571 165.478 140.934 165.004 141.254 C 164.538 141.574 164.008 141.827 163.414 142.014 C 162.821 142.207 162.148 142.304 161.394 142.304 Z M 163.414 137.704 C 163.808 137.704 164.154 137.637 164.454 137.504 C 164.761 137.371 165.034 137.201 165.274 136.994 C 165.521 136.781 165.734 136.534 165.914 136.254 C 166.094 135.974 166.244 135.684 166.364 135.384 L 166.364 115.974 C 166.071 115.321 165.678 114.764 165.184 114.304 C 164.691 113.844 164.094 113.614 163.394 113.614 C 162.954 113.614 162.554 113.691 162.194 113.844 C 161.834 114.004 161.521 114.297 161.254 114.724 C 160.994 115.157 160.788 115.751 160.634 116.504 C 160.488 117.264 160.414 118.244 160.414 119.444 L 160.414 131.824 C 160.414 133.024 160.488 134.007 160.634 134.774 C 160.788 135.541 160.994 136.137 161.254 136.564 C 161.521 136.997 161.838 137.297 162.204 137.464 C 162.571 137.624 162.974 137.704 163.414 137.704 ZM 186.145 142.274 C 184.752 142.274 183.522 142.017 182.455 141.504 C 181.382 140.984 180.479 140.177 179.745 139.084 C 179.012 137.991 178.459 136.591 178.085 134.884 C 177.705 133.171 177.515 131.111 177.515 128.704 L 177.515 122.614 C 177.515 120.567 177.669 118.814 177.975 117.354 C 178.282 115.887 178.682 114.661 179.175 113.674 C 179.662 112.681 180.232 111.894 180.885 111.314 C 181.532 110.734 182.199 110.294 182.885 109.994 C 183.572 109.687 184.255 109.491 184.935 109.404 C 185.615 109.317 186.245 109.274 186.825 109.274 C 187.885 109.274 188.909 109.434 189.895 109.754 C 190.875 110.074 191.742 110.621 192.495 111.394 C 193.242 112.167 193.839 113.204 194.285 114.504 C 194.732 115.797 194.955 117.414 194.955 119.354 C 194.955 120.007 194.935 120.671 194.895 121.344 C 194.855 122.017 194.805 122.677 194.745 123.324 C 194.685 123.971 194.602 124.601 194.495 125.214 C 194.395 125.821 194.292 126.384 194.185 126.904 L 183.475 126.904 L 183.475 130.184 C 183.475 131.591 183.529 132.774 183.635 133.734 C 183.742 134.694 183.925 135.467 184.185 136.054 C 184.445 136.641 184.799 137.061 185.245 137.314 C 185.685 137.574 186.242 137.704 186.915 137.704 C 187.275 137.704 187.629 137.631 187.975 137.484 C 188.315 137.337 188.615 137.091 188.875 136.744 C 189.135 136.397 189.342 135.941 189.495 135.374 C 189.649 134.801 189.725 134.094 189.725 133.254 L 189.725 132.244 L 194.675 132.244 L 194.675 133.484 C 194.675 136.551 193.945 138.781 192.485 140.174 C 191.025 141.574 188.912 142.274 186.145 142.274 Z M 183.475 122.914 L 189.425 122.914 C 189.439 122.741 189.455 122.511 189.475 122.224 C 189.489 121.937 189.499 121.637 189.505 121.324 C 189.512 121.011 189.515 120.701 189.515 120.394 C 189.515 120.094 189.515 119.834 189.515 119.614 C 189.515 117.487 189.265 115.954 188.765 115.014 C 188.265 114.081 187.525 113.614 186.545 113.614 C 186.025 113.614 185.572 113.734 185.185 113.974 C 184.792 114.214 184.472 114.621 184.225 115.194 C 183.972 115.761 183.782 116.514 183.655 117.454 C 183.535 118.394 183.475 119.557 183.475 120.944 L 183.475 122.914 ZM 197.51 141.924 L 204.21 125.544 L 197.83 109.654 L 203.9 109.654 L 207.35 120.224 L 207.4 120.224 L 211.05 109.654 L 216.72 109.654 L 210.61 124.974 L 217.47 141.924 L 211.4 141.924 L 207.42 130.794 L 207.23 130.794 L 203.2 141.924 L 197.51 141.924 ZM 229.236 142.274 C 228.549 142.274 227.849 142.221 227.136 142.114 C 226.429 142.001 225.742 141.774 225.076 141.434 C 224.409 141.087 223.782 140.594 223.196 139.954 C 222.616 139.314 222.106 138.471 221.666 137.424 C 221.226 136.377 220.882 135.087 220.636 133.554 C 220.382 132.027 220.256 130.201 220.256 128.074 L 220.256 123.014 C 220.256 120.921 220.386 119.127 220.646 117.634 C 220.906 116.141 221.256 114.887 221.696 113.874 C 222.142 112.854 222.662 112.044 223.256 111.444 C 223.849 110.844 224.479 110.384 225.146 110.064 C 225.812 109.744 226.496 109.531 227.196 109.424 C 227.902 109.324 228.589 109.274 229.256 109.274 C 229.896 109.274 230.562 109.321 231.256 109.414 C 231.942 109.507 232.612 109.707 233.266 110.014 C 233.926 110.321 234.546 110.774 235.126 111.374 C 235.712 111.974 236.229 112.781 236.676 113.794 C 237.122 114.814 237.476 116.077 237.736 117.584 C 237.989 119.091 238.116 120.901 238.116 123.014 L 238.116 128.074 C 238.116 130.167 237.982 131.971 237.716 133.484 C 237.456 135.004 237.099 136.287 236.646 137.334 C 236.192 138.381 235.669 139.227 235.076 139.874 C 234.482 140.521 233.856 141.024 233.196 141.384 C 232.542 141.744 231.876 141.984 231.196 142.104 C 230.516 142.217 229.862 142.274 229.236 142.274 Z M 229.286 137.704 C 229.812 137.704 230.259 137.567 230.626 137.294 C 230.999 137.021 231.296 136.571 231.516 135.944 C 231.742 135.324 231.909 134.501 232.016 133.474 C 232.116 132.454 232.166 131.184 232.166 129.664 L 232.166 121.724 C 232.166 120.204 232.116 118.931 232.016 117.904 C 231.909 116.871 231.742 116.037 231.516 115.404 C 231.296 114.771 230.999 114.314 230.626 114.034 C 230.259 113.754 229.812 113.614 229.286 113.614 C 228.719 113.614 228.246 113.754 227.866 114.034 C 227.479 114.314 227.162 114.771 226.916 115.404 C 226.662 116.037 226.482 116.871 226.376 117.904 C 226.269 118.931 226.216 120.204 226.216 121.724 L 226.216 129.664 C 226.216 131.184 226.269 132.454 226.376 133.474 C 226.482 134.501 226.662 135.324 226.916 135.944 C 227.162 136.571 227.479 137.021 227.866 137.294 C 228.246 137.567 228.719 137.704 229.286 137.704 ZM 243.366 141.924 L 243.366 109.654 L 247.696 109.654 L 248.216 112.934 C 248.869 111.714 249.623 110.801 250.476 110.194 C 251.329 109.581 252.199 109.274 253.086 109.274 C 254.793 109.274 256.053 109.797 256.866 110.844 C 257.679 111.891 258.086 113.461 258.086 115.554 C 258.086 115.821 258.066 116.137 258.026 116.504 C 257.986 116.871 257.929 117.254 257.856 117.654 C 257.789 118.054 257.706 118.454 257.606 118.854 C 257.499 119.247 257.393 119.611 257.286 119.944 L 253.156 119.944 L 253.156 116.944 C 253.156 116.284 253.113 115.744 253.026 115.324 C 252.946 114.904 252.836 114.564 252.696 114.304 C 252.549 114.044 252.383 113.864 252.196 113.764 C 252.009 113.664 251.806 113.614 251.586 113.614 C 251.119 113.614 250.686 113.764 250.286 114.064 C 249.893 114.371 249.563 114.797 249.296 115.344 L 249.296 141.924 L 243.366 141.924 Z" transform="matrix(1, 0, 0, 1, 0, 0)" style="fill: rgb(10, 10, 10); white-space: pre;"/>
</svg>